<?xml version="1.0" encoding="UTF-8" standalone="no"?>
<svg
   xmlns:dc="http://purl.org/dc/elements/1.1/"
   xmlns:cc="http://creativecommons.org/ns#"
   xmlns:rdf="http://www.w3.org/1999/02/22-rdf-syntax-ns#"
   xmlns:svg="http://www.w3.org/2000/svg"
   xmlns="http://www.w3.org/2000/svg"
   xmlns:sodipodi="http://sodipodi.sourceforge.net/DTD/sodipodi-0.dtd"
   xmlns:inkscape="http://www.inkscape.org/namespaces/inkscape"
   viewBox="0 0 1248 300"
   version="1.1"
   id="svg386"
   sodipodi:docname="back.svg"
   width="1248"
   height="300"
   inkscape:version="0.92.1 r15371">
  <metadata
     id="metadata392">
    <rdf:RDF>
      <cc:Work
         rdf:about="">
        <dc:format>image/svg+xml</dc:format>
        <dc:type
           rdf:resource="http://purl.org/dc/dcmitype/StillImage" />
        <dc:title></dc:title>
      </cc:Work>
    </rdf:RDF>
  </metadata>
  <defs
     id="defs390" />
  <sodipodi:namedview
     pagecolor="#ffffff"
     bordercolor="#666666"
     borderopacity="1"
     objecttolerance="10"
     gridtolerance="10"
     guidetolerance="10"
     inkscape:pageopacity="0"
     inkscape:pageshadow="2"
     inkscape:window-width="1920"
     inkscape:window-height="1017"
     id="namedview388"
     showgrid="false"
     borderlayer="true"
     inkscape:zoom="0.84988796"
     inkscape:cx="821.2717"
     inkscape:cy="-22.791531"
     inkscape:window-x="-8"
     inkscape:window-y="-8"
     inkscape:window-maximized="1"
     inkscape:current-layer="svg386" />
  <g
     transform="matrix(-1,0,0,1,1319.59,-357.8)"
     id="g384">
    <path
       d="M 19.455,79.25 29.515,179.59 142.145,65.94"
       id="path2"
       inkscape:connector-curvature="0"
       style="fill:#f2fcee;stroke:#f2fcee" />
    <path
       d="M 142.14,65.937 29.51,179.587 172.05,151.261"
       id="path4"
       inkscape:connector-curvature="0"
       style="fill:#ecfae7;stroke:#ecfae7" />
    <path
       d="m 142.14,65.937 29.906,85.33 89.15,-124.3"
       id="path6"
       inkscape:connector-curvature="0"
       style="fill:#eaf8e7;stroke:#eaf8e7" />
    <path
       d="m 261.2,26.969 -89.15,124.3 83.26,11.183 z"
       id="path8"
       inkscape:connector-curvature="0"
       style="fill:#e5f7e0;stroke:#e5f7e0" />
    <path
       d="m 261.2,26.969 -5.89,135.48 88.06,-85.29 z"
       id="path10"
       inkscape:connector-curvature="0"
       style="fill:#e2f7de;stroke:#e2f7de" />
    <path
       d="m 343.37,77.16 -88.06,85.29 115.33,-11.217"
       id="path12"
       inkscape:connector-curvature="0"
       style="fill:#d8f5d6;stroke:#d8f5d6" />
    <path
       d="m 343.37,77.16 27.27,74.07 102.09,-88.85"
       id="path14"
       inkscape:connector-curvature="0"
       style="fill:#d1f1d5;stroke:#d1f1d5" />
    <path
       d="m 472.73,62.38 -102.09,88.85 109.23,30.503"
       id="path16"
       inkscape:connector-curvature="0"
       style="fill:#c8efd4;stroke:#c8efd4" />
    <path
       d="m 472.73,62.38 7.138,119.36 86.983,-98.73 z"
       id="path18"
       inkscape:connector-curvature="0"
       style="fill:#bdeddc;stroke:#bdeddc" />
    <path
       d="m 566.85,83 -86.983,98.73 78.18,-9.415 z"
       id="path20"
       inkscape:connector-curvature="0"
       style="fill:#b6ebd9;stroke:#b6ebd9" />
    <path
       d="m 566.85,83 -8.8,89.32 93.84,-89.98 z"
       id="path22"
       inkscape:connector-curvature="0"
       style="fill:#afe6e4;stroke:#afe6e4" />
    <path
       d="m 651.9,82.34 -93.84,89.98 105.66,11.988 z"
       id="path24"
       inkscape:connector-curvature="0"
       style="fill:#a7e3e2;stroke:#a7e3e2" />
    <path
       d="m 651.9,82.34 11.814,101.97 67.902,-62.15 z"
       id="path26"
       inkscape:connector-curvature="0"
       style="fill:#9fdee7;stroke:#9fdee7" />
    <path
       d="m 881.95,31.462 -150.33,90.7 135.44,28.468"
       id="path28"
       inkscape:connector-curvature="0"
       style="fill:#8cc8e3;stroke:#8cc8e3" />
    <path
       d="m 881.95,31.462 -14.893,119.16 82.938,-112.18"
       id="path30"
       inkscape:connector-curvature="0"
       style="fill:#85bde0;stroke:#85bde0" />
    <path
       d="m 949.99,38.448 -82.938,112.18 74.33,29.3 z"
       id="path32"
       inkscape:connector-curvature="0"
       style="fill:#7dbcdc;stroke:#7dbcdc" />
    <path
       d="m 949.99,38.448 -8.606,141.48 84.77,-97.29"
       id="path34"
       inkscape:connector-curvature="0"
       style="fill:#78b3db;stroke:#78b3db" />
    <path
       d="m 1026.16,82.63 -84.77,97.29 141.56,-47.856"
       id="path36"
       inkscape:connector-curvature="0"
       style="fill:#76afd1;stroke:#76afd1" />
    <path
       d="m 1384.89,40.86 -116.62,76.93 81.74,60.58 z"
       id="path38"
       inkscape:connector-curvature="0"
       style="fill:#7874a4;stroke:#7874a4" />
    <path
       d="m 29.515,179.59 -0.211,91.19 121.91,-54.12 z"
       id="path40"
       inkscape:connector-curvature="0"
       style="fill:#defbe0;stroke:#defbe0" />
    <path
       d="m 29.515,179.59 121.7,37.07 20.833,-65.4"
       id="path42"
       inkscape:connector-curvature="0"
       style="fill:#e5fae1;stroke:#e5fae1" />
    <path
       d="m 172.05,151.26 -20.833,65.4 104.09,-54.21 z"
       id="path44"
       inkscape:connector-curvature="0"
       style="fill:#e1fad9;stroke:#e1fad9" />
    <path
       d="m 255.31,162.45 -104.09,54.21 94.34,40.3 z"
       id="path46"
       inkscape:connector-curvature="0"
       style="fill:#d4f9d4;stroke:#d4f9d4" />
    <path
       d="m 255.31,162.45 -9.753,94.51 111.55,-2.273 z"
       id="path48"
       inkscape:connector-curvature="0"
       style="fill:#cbf7cd;stroke:#cbf7cd" />
    <path
       d="M 255.31,162.45 357.1,254.69 370.642,151.24"
       id="path50"
       inkscape:connector-curvature="0"
       style="fill:#cff5ce;stroke:#cff5ce" />
    <path
       d="m 370.64,151.23 -13.542,103.45 79.62,-36.806 z"
       id="path52"
       inkscape:connector-curvature="0"
       style="fill:#c2f2c9;stroke:#c2f2c9" />
    <path
       d="m 370.64,151.23 66.08,66.65 43.15,-36.14 z"
       id="path54"
       inkscape:connector-curvature="0"
       style="fill:#c3efcb;stroke:#c3efcb" />
    <path
       d="m 479.87,181.73 -43.15,36.14 94.94,35.502 z"
       id="path56"
       inkscape:connector-curvature="0"
       style="fill:#afeecc;stroke:#afeecc" />
    <path
       d="m 479.87,181.73 51.788,71.65 26.395,-81.06 z"
       id="path58"
       inkscape:connector-curvature="0"
       style="fill:#acecd2;stroke:#acecd2" />
    <path
       d="m 558.05,172.32 -26.395,81.06 117.38,-16.17 z"
       id="path60"
       inkscape:connector-curvature="0"
       style="fill:#9fe8d5;stroke:#9fe8d5" />
    <path
       d="m 558.05,172.32 90.98,64.89 14.678,-52.902 z"
       id="path62"
       inkscape:connector-curvature="0"
       style="fill:#9ce6db;stroke:#9ce6db" />
    <path
       d="m 663.71,184.31 -14.678,52.902 116.36,-2.844 z"
       id="path64"
       inkscape:connector-curvature="0"
       style="fill:#8bdfdf;stroke:#8bdfdf" />
    <path
       d="M 663.71,184.31 765.39,234.37 731.609,122.16"
       id="path66"
       inkscape:connector-curvature="0"
       style="fill:#91d9e1;stroke:#91d9e1" />
    <path
       d="m 731.61,122.16 33.781,112.21 101.66,-83.74"
       id="path68"
       inkscape:connector-curvature="0"
       style="fill:#8cd0de;stroke:#8cd0de" />
    <path
       d="m 867.05,150.63 -101.66,83.74 69.01,44.504"
       id="path70"
       inkscape:connector-curvature="0"
       style="fill:#77cdd7;stroke:#77cdd7" />
    <path
       d="m 867.05,150.63 -32.652,128.24 106.98,-98.94"
       id="path72"
       inkscape:connector-curvature="0"
       style="fill:#75c3d5;stroke:#75c3d5" />
    <path
       d="M 941.39,179.93 834.41,278.87 958.99,230.45"
       id="path74"
       inkscape:connector-curvature="0"
       style="fill:#6ac1d0;stroke:#6ac1d0" />
    <path
       d="m 941.39,179.93 17.599,50.52 123.96,-98.37 z"
       id="path76"
       inkscape:connector-curvature="0"
       style="fill:#70b4ce;stroke:#70b4ce" />
    <path
       d="m 1082.94,132.07 -123.96,98.37 123.78,6.932 z"
       id="path78"
       inkscape:connector-curvature="0"
       style="fill:#69aec7;stroke:#69aec7" />
    <path
       d="m 1082.94,132.07 -0.175,105.31 62.57,-98.69 z"
       id="path80"
       inkscape:connector-curvature="0"
       style="fill:#71a3c1;stroke:#71a3c1" />
    <path
       d="m 1145.34,138.68 -62.57,98.69 56.79,14.606 z"
       id="path82"
       inkscape:connector-curvature="0"
       style="fill:#66a2b9;stroke:#66a2b9" />
    <path
       d="m 1145.34,138.68 -5.784,113.3 82.08,24.2 z"
       id="path84"
       inkscape:connector-curvature="0"
       style="fill:#639bb1;stroke:#639bb1" />
    <path
       d="m 1145.34,138.68 76.3,137.5 46.626,-158.39 z"
       id="path86"
       inkscape:connector-curvature="0"
       style="fill:#6e91af;stroke:#6e91af" />
    <path
       d="m 1268.27,117.79 -46.626,158.39 97.33,-16.944 z"
       id="path88"
       inkscape:connector-curvature="0"
       style="fill:#628ba3;stroke:#628ba3" />
    <path
       d="m 1268.27,117.79 50.703,141.45 31.04,-80.87 z"
       id="path90"
       inkscape:connector-curvature="0"
       style="fill:#6a7ea0;stroke:#6a7ea0" />
    <path
       d="m 29.3,270.78 -59.39,48.989 87.76,-2.535 z"
       id="path92"
       inkscape:connector-curvature="0"
       style="fill:#c8fbe9;stroke:#c8fbe9" />
    <path
       d="m 29.3,270.78 28.368,46.45 93.55,-100.57 z"
       id="path94"
       inkscape:connector-curvature="0"
       style="fill:#cefcdf;stroke:#cefcdf" />
    <path
       d="M 151.22,216.66 57.67,317.23 178.83,363.007"
       id="path96"
       inkscape:connector-curvature="0"
       style="fill:#c1f8e0;stroke:#c1f8e0" />
    <path
       d="M 151.22,216.66 178.831,363.01 245.56,256.96 Z"
       id="path98"
       inkscape:connector-curvature="0"
       style="fill:#c2f7d7;stroke:#c2f7d7" />
    <path
       d="m 245.56,256.96 -66.729,106.05 74.67,-47.808 z"
       id="path100"
       inkscape:connector-curvature="0"
       style="fill:#b3f6da;stroke:#b3f6da" />
    <path
       d="m 245.56,256.96 7.938,58.24 103.61,-60.52 z"
       id="path102"
       inkscape:connector-curvature="0"
       style="fill:#bcf5cf;stroke:#bcf5cf" />
    <path
       d="M 357.1,254.68 253.49,315.2 355.05,327.186 Z"
       id="path104"
       inkscape:connector-curvature="0"
       style="fill:#aef3d2;stroke:#aef3d2" />
    <path
       d="m 357.1,254.68 -2.047,72.5 78.21,-5.19 z"
       id="path106"
       inkscape:connector-curvature="0"
       style="fill:#a5f0cf;stroke:#a5f0cf" />
    <path
       d="m 357.1,254.68 76.16,67.31 3.459,-104.12 z"
       id="path108"
       inkscape:connector-curvature="0"
       style="fill:#aef1c7;stroke:#aef1c7" />
    <path
       d="m 436.72,217.88 -3.459,104.12 98.4,-68.62 z"
       id="path110"
       inkscape:connector-curvature="0"
       style="fill:#a4eecc;stroke:#a4eecc" />
    <path
       d="M 531.66,253.38 433.26,322 540.83,333.725 Z"
       id="path112"
       inkscape:connector-curvature="0"
       style="fill:#90ebd3;stroke:#90ebd3" />
    <path
       d="m 531.66,253.38 9.17,80.34 77.57,-17.794 z"
       id="path114"
       inkscape:connector-curvature="0"
       style="fill:#87e7d9;stroke:#87e7d9" />
    <path
       d="m 531.66,253.38 86.74,62.55 30.636,-78.72 z"
       id="path116"
       inkscape:connector-curvature="0"
       style="fill:#8be6d7;stroke:#8be6d7" />
    <path
       d="m 649.03,237.21 -30.636,78.72 98.89,27.627 z"
       id="path118"
       inkscape:connector-curvature="0"
       style="fill:#76dee2;stroke:#76dee2" />
    <path
       d="m 649.03,237.21 68.25,106.34 48.11,-109.19 z"
       id="path120"
       inkscape:connector-curvature="0"
       style="fill:#77dbdf;stroke:#77dbdf" />
    <path
       d="M 765.4,234.37 717.29,343.56 834.41,278.88"
       id="path122"
       inkscape:connector-curvature="0"
       style="fill:#6bd1dc;stroke:#6bd1dc" />
    <path
       d="M 834.4,278.87 717.28,343.55 871.5,319.13"
       id="path124"
       inkscape:connector-curvature="0"
       style="fill:#5dcadd;stroke:#5dcadd" />
    <path
       d="m 834.4,278.87 37.1,40.27 87.48,-88.69 z"
       id="path126"
       inkscape:connector-curvature="0"
       style="fill:#5dc2d5;stroke:#5dc2d5" />
    <path
       d="m 958.99,230.45 -87.48,88.69 62.64,6.071 z"
       id="path128"
       inkscape:connector-curvature="0"
       style="fill:#54bdd4;stroke:#54bdd4" />
    <path
       d="m 958.99,230.45 -24.849,94.76 148.02,19.01 z"
       id="path130"
       inkscape:connector-curvature="0"
       style="fill:#4bb3cf;stroke:#4bb3cf" />
    <path
       d="m 958.99,230.45 123.17,113.77 0.617,-106.84"
       id="path132"
       inkscape:connector-curvature="0"
       style="fill:#55aec4;stroke:#55aec4" />
    <path
       d="m 1082.77,237.38 -0.617,106.84 57.41,-92.24 z"
       id="path134"
       inkscape:connector-curvature="0"
       style="fill:#51a5bc;stroke:#51a5bc" />
    <path
       d="m 1139.56,251.98 -57.41,92.24 86.94,-18.692 z"
       id="path136"
       inkscape:connector-curvature="0"
       style="fill:#479cbc;stroke:#479cbc" />
    <path
       d="m 1139.56,251.98 29.538,73.55 52.55,-49.35 z"
       id="path138"
       inkscape:connector-curvature="0"
       style="fill:#4e9ab2;stroke:#4e9ab2" />
    <path
       d="m 1221.64,276.18 -52.55,49.35 67.14,13.199 z"
       id="path140"
       inkscape:connector-curvature="0"
       style="fill:#4590b1;stroke:#4590b1" />
    <path
       d="m 1221.64,276.18 14.594,62.54 82.73,-79.49 z"
       id="path142"
       inkscape:connector-curvature="0"
       style="fill:#4c8ba7;stroke:#4c8ba7" />
    <path
       d="m 1318.97,259.24 -82.73,79.49 120.68,-5.682 z"
       id="path144"
       inkscape:connector-curvature="0"
       style="fill:#4881a0;stroke:#4881a0" />
    <path
       d="M -30.09,319.77 26.93,472.53 57.666,317.23"
       id="path146"
       inkscape:connector-curvature="0"
       style="fill:#b0f4f4;stroke:#b0f4f4" />
    <path
       d="m 57.671,317.23 -30.736,155.3 123.08,6.276"
       id="path148"
       inkscape:connector-curvature="0"
       style="fill:#9be5f3;stroke:#9be5f3" />
    <path
       d="M 57.671,317.23 150.011,478.8 178.823,363"
       id="path150"
       inkscape:connector-curvature="0"
       style="fill:#a2eded;stroke:#a2eded" />
    <path
       d="m 178.83,363.01 -28.812,115.8 132.26,-7.04"
       id="path152"
       inkscape:connector-curvature="0"
       style="fill:#8cdfe9;stroke:#8cdfe9" />
    <path
       d="M 178.83,363.01 282.28,471.77 253.496,315.2"
       id="path154"
       inkscape:connector-curvature="0"
       style="fill:#9bebe5;stroke:#9bebe5" />
    <path
       d="m 253.5,315.2 28.784,156.57 72.78,-144.58"
       id="path156"
       inkscape:connector-curvature="0"
       style="fill:#97eddd;stroke:#97eddd" />
    <path
       d="m 355.06,327.19 -72.78,144.58 97.07,11.07"
       id="path158"
       inkscape:connector-curvature="0"
       style="fill:#81dfe1;stroke:#81dfe1" />
    <path
       d="m 355.06,327.19 24.294,155.65 80.31,-36.12 z"
       id="path160"
       inkscape:connector-curvature="0"
       style="fill:#79dee1;stroke:#79dee1" />
    <path
       d="M 355.06,327.19 459.66,446.72 433.262,322"
       id="path162"
       inkscape:connector-curvature="0"
       style="fill:#8ae8d8;stroke:#8ae8d8" />
    <path
       d="m 433.26,322 26.398,124.72 64.51,-24.16 z"
       id="path164"
       inkscape:connector-curvature="0"
       style="fill:#75dee2;stroke:#75dee2" />
    <path
       d="m 433.26,322 90.91,100.56 16.657,-88.83 z"
       id="path166"
       inkscape:connector-curvature="0"
       style="fill:#7ee4de;stroke:#7ee4de" />
    <path
       d="m 540.83,333.72 -16.657,88.83 94.23,-106.63 z"
       id="path168"
       inkscape:connector-curvature="0"
       style="fill:#73e2e3;stroke:#73e2e3" />
    <path
       d="m 618.4,315.93 -94.23,106.63 121.38,27.975 z"
       id="path170"
       inkscape:connector-curvature="0"
       style="fill:#61d6e9;stroke:#61d6e9" />
    <path
       d="m 618.4,315.93 27.16,134.6 71.73,-106.98 z"
       id="path172"
       inkscape:connector-curvature="0"
       style="fill:#5fd5e9;stroke:#5fd5e9" />
    <path
       d="m 717.29,343.55 -71.73,106.98 133.73,6.29 z"
       id="path174"
       inkscape:connector-curvature="0"
       style="fill:#47c4ee;stroke:#47c4ee" />
    <path
       d="m 717.29,343.55 61.997,113.27 92.22,-137.69 z"
       id="path176"
       inkscape:connector-curvature="0"
       style="fill:#4ac2e6;stroke:#4ac2e6" />
    <path
       d="m 871.5,319.13 -92.22,137.69 38.962,25 z"
       id="path178"
       inkscape:connector-curvature="0"
       style="fill:#37b4e7;stroke:#37b4e7" />
    <path
       d="M 871.5,319.13 818.24,481.82 970.35,417.34"
       id="path180"
       inkscape:connector-curvature="0"
       style="fill:#33afe3;stroke:#33afe3" />
    <path
       d="m 871.5,319.13 98.85,98.21 -36.22,-92.14 z"
       id="path182"
       inkscape:connector-curvature="0"
       style="fill:#3fb3db;stroke:#3fb3db" />
    <path
       d="m 934.14,325.21 36.22,92.14 111.8,-73.12 z"
       id="path184"
       inkscape:connector-curvature="0"
       style="fill:#37a8d7;stroke:#37a8d7" />
    <path
       d="m 1082.15,344.22 -111.8,73.12 61.36,28.393 z"
       id="path186"
       inkscape:connector-curvature="0"
       style="fill:#289cd6;stroke:#289cd6" />
    <path
       d="M 1082.15,344.22 1031.72,445.74 1169.64,479 Z"
       id="path188"
       inkscape:connector-curvature="0"
       style="fill:#248cca;stroke:#248cca" />
    <path
       d="M 1082.15,344.22 1169.64,479 1169.093,325.53 Z"
       id="path190"
       inkscape:connector-curvature="0"
       style="fill:#2e8dc3;stroke:#2e8dc3" />
    <path
       d="m 1169.1,325.53 0.547,153.47 66.59,-140.27 z"
       id="path192"
       inkscape:connector-curvature="0"
       style="fill:#3186b8;stroke:#3186b8" />
    <path
       d="m 1236.24,338.73 -66.59,140.27 61.29,-0.11 z"
       id="path194"
       inkscape:connector-curvature="0"
       style="fill:#2276b6;stroke:#2276b6" />
    <path
       d="m 1236.24,338.73 -5.304,140.16 108.89,-13.02 z"
       id="path196"
       inkscape:connector-curvature="0"
       style="fill:#236fad;stroke:#236fad" />
    <path
       d="m 1236.24,338.73 103.58,127.14 17.1,-132.82 z"
       id="path198"
       inkscape:connector-curvature="0"
       style="fill:#3174a6;stroke:#3174a6" />
    <path
       d="m 26.935,472.53 9.253,99.58 113.83,-93.3 z"
       id="path200"
       inkscape:connector-curvature="0"
       style="fill:#86cee8;stroke:#86cee8" />
    <path
       d="m 150.02,478.81 -113.83,93.3 137.89,-0.32"
       id="path202"
       inkscape:connector-curvature="0"
       style="fill:#7fc4e0;stroke:#7fc4e0" />
    <path
       d="m 150.02,478.81 24.07,92.98 65.26,-24.706 z"
       id="path204"
       inkscape:connector-curvature="0"
       style="fill:#79c6de;stroke:#79c6de" />
    <path
       d="m 150.02,478.81 89.33,68.27 42.933,-75.31 z"
       id="path206"
       inkscape:connector-curvature="0"
       style="fill:#79cde0;stroke:#79cde0" />
    <path
       d="m 282.28,471.77 -42.933,75.31 127.1,-23.61 z"
       id="path208"
       inkscape:connector-curvature="0"
       style="fill:#71c9d9;stroke:#71c9d9" />
    <path
       d="m 282.28,471.77 84.17,51.701 12.905,-40.631 z"
       id="path210"
       inkscape:connector-curvature="0"
       style="fill:#6eccd8;stroke:#6eccd8" />
    <path
       d="m 379.35,482.84 -12.905,40.631 98.98,1.631 z"
       id="path212"
       inkscape:connector-curvature="0"
       style="fill:#64c4d3;stroke:#64c4d3" />
    <path
       d="m 379.35,482.84 86.08,42.26 -5.769,-78.38 z"
       id="path214"
       inkscape:connector-curvature="0"
       style="fill:#63cad7;stroke:#63cad7" />
    <path
       d="m 459.66,446.72 5.769,78.38 58.743,-102.54 z"
       id="path216"
       inkscape:connector-curvature="0"
       style="fill:#60ccdc;stroke:#60ccdc" />
    <path
       d="m 524.17,422.56 -58.743,102.54 83.2,7.511 z"
       id="path218"
       inkscape:connector-curvature="0"
       style="fill:#52c2db;stroke:#52c2db" />
    <path
       d="m 524.17,422.56 24.456,110.05 96.93,-82.08 z"
       id="path220"
       inkscape:connector-curvature="0"
       style="fill:#4fc3e3;stroke:#4fc3e3" />
    <path
       d="m 645.55,450.53 -96.93,82.08 73.57,17.841 z"
       id="path222"
       inkscape:connector-curvature="0"
       style="fill:#42b5de;stroke:#42b5de" />
    <path
       d="m 645.55,450.53 -23.357,99.92 106.27,-4.858 z"
       id="path224"
       inkscape:connector-curvature="0"
       style="fill:#37aee1;stroke:#37aee1" />
    <path
       d="m 645.55,450.53 82.91,95.06 50.82,-88.77 z"
       id="path226"
       inkscape:connector-curvature="0"
       style="fill:#34b0e5;stroke:#34b0e5" />
    <path
       d="m 779.28,456.82 -50.82,88.77 89.78,-63.77 z"
       id="path228"
       inkscape:connector-curvature="0"
       style="fill:#28a6e1;stroke:#28a6e1" />
    <path
       d="m 818.24,481.82 -89.78,63.77 95.39,32.31 z"
       id="path230"
       inkscape:connector-curvature="0"
       style="fill:#2397da;stroke:#2397da" />
    <path
       d="m 818.24,481.82 5.604,96.08 97.26,-11.883 z"
       id="path232"
       inkscape:connector-curvature="0"
       style="fill:#1b8cd4;stroke:#1b8cd4" />
    <path
       d="m 818.24,481.82 102.86,84.2 49.25,-148.68 z"
       id="path234"
       inkscape:connector-curvature="0"
       style="fill:#1a94d9;stroke:#1a94d9" />
    <path
       d="M 970.35,417.34 921.1,566.02 1031.72,445.74"
       id="path236"
       inkscape:connector-curvature="0"
       style="fill:#168ed4;stroke:#168ed4" />
    <path
       d="m 1031.72,445.74 -110.62,120.28 155.64,0.169 z"
       id="path238"
       inkscape:connector-curvature="0"
       style="fill:#0f7ac7;stroke:#0f7ac7" />
    <path
       d="m 1031.72,445.74 45.03,120.45 68.824,-21.694 z"
       id="path240"
       inkscape:connector-curvature="0"
       style="fill:#0f71bd;stroke:#0f71bd" />
    <path
       d="m 1031.72,445.74 113.85,98.76 24.07,-65.5 z"
       id="path242"
       inkscape:connector-curvature="0"
       style="fill:#1374bc;stroke:#1374bc" />
    <path
       d="m 1169.64,479 -24.07,65.5 77.919,-14.834 z"
       id="path244"
       inkscape:connector-curvature="0"
       style="fill:#1164ac;stroke:#1164ac" />
    <path
       d="m 1169.64,479 53.847,50.666 7.442,-50.776 z"
       id="path246"
       inkscape:connector-curvature="0"
       style="fill:#1465ab;stroke:#1465ab" />
    <path
       d="m 1230.93,478.89 -7.442,50.776 116.33,-63.796 z"
       id="path248"
       inkscape:connector-curvature="0"
       style="fill:#145ea3;stroke:#145ea3" />
    <path
       d="m 1339.82,465.87 -116.33,63.796 142.45,28.06 z"
       id="path250"
       inkscape:connector-curvature="0"
       style="fill:#114f98;stroke:#114f98" />
    <path
       d="m 36.19,572.1 14.407,48.14 123.49,-48.46 z"
       id="path252"
       inkscape:connector-curvature="0"
       style="fill:#7cb6dd;stroke:#7cb6dd" />
    <path
       d="m 174.08,571.78 -123.49,48.46 64.64,39.62 z"
       id="path254"
       inkscape:connector-curvature="0"
       style="fill:#7aadd2;stroke:#7aadd2" />
    <path
       d="m 174.08,571.78 -58.845,88.08 138.58,-0.242 z"
       id="path256"
       inkscape:connector-curvature="0"
       style="fill:#75a9c8;stroke:#75a9c8" />
    <path
       d="m 174.08,571.78 79.73,87.84 -14.47,-112.55 z"
       id="path258"
       inkscape:connector-curvature="0"
       style="fill:#72b2d1;stroke:#72b2d1" />
    <path
       d="m 239.35,547.08 14.47,112.55 90.25,-15.427 z"
       id="path260"
       inkscape:connector-curvature="0"
       style="fill:#6caac7;stroke:#6caac7" />
    <path
       d="M 239.35,547.08 344.07,644.2 366.452,523.47 Z"
       id="path262"
       inkscape:connector-curvature="0"
       style="fill:#69b7cf;stroke:#69b7cf" />
    <path
       d="m 366.44,523.47 -22.382,120.73 93.58,25.951 z"
       id="path264"
       inkscape:connector-curvature="0"
       style="fill:#5ea8c2;stroke:#5ea8c2" />
    <path
       d="M 366.44,523.47 437.63,670.15 465.42,525.1"
       id="path266"
       inkscape:connector-curvature="0"
       style="fill:#59b1cc;stroke:#59b1cc" />
    <path
       d="M 465.43,525.1 437.64,670.15 557.15,626.657"
       id="path268"
       inkscape:connector-curvature="0"
       style="fill:#4ea3c6;stroke:#4ea3c6" />
    <path
       d="m 465.43,525.1 91.72,101.56 -8.524,-94.05 z"
       id="path270"
       inkscape:connector-curvature="0"
       style="fill:#4aaed3;stroke:#4aaed3" />
    <path
       d="m 548.63,532.61 8.524,94.05 65.05,-76.21 z"
       id="path272"
       inkscape:connector-curvature="0"
       style="fill:#40a8d5;stroke:#40a8d5" />
    <path
       d="m 622.2,550.45 -65.05,76.21 75.45,4.237 z"
       id="path274"
       inkscape:connector-curvature="0"
       style="fill:#399acf;stroke:#399acf" />
    <path
       d="m 622.2,550.45 10.404,80.44 95.86,-85.3 z"
       id="path276"
       inkscape:connector-curvature="0"
       style="fill:#309ddb;stroke:#309ddb" />
    <path
       d="m 728.46,545.59 -95.86,85.3 150.23,-12.333 z"
       id="path278"
       inkscape:connector-curvature="0"
       style="fill:#2890d4;stroke:#2890d4" />
    <path
       d="m 728.46,545.59 54.37,72.968 41.02,-40.655 z"
       id="path280"
       inkscape:connector-curvature="0"
       style="fill:#208cd4;stroke:#208cd4" />
    <path
       d="m 823.85,577.91 -41.02,40.655 92.99,41.13 z"
       id="path282"
       inkscape:connector-curvature="0"
       style="fill:#1c78c3;stroke:#1c78c3" />
    <path
       d="m 823.85,577.91 51.975,81.79 45.28,-93.67 z"
       id="path284"
       inkscape:connector-curvature="0"
       style="fill:#1677c6;stroke:#1677c6" />
    <path
       d="m 921.1,566.02 -45.28,93.67 94.47,-41.03 z"
       id="path286"
       inkscape:connector-curvature="0"
       style="fill:#106ebe;stroke:#106ebe" />
    <path
       d="m 921.1,566.02 49.19,52.644 106.45,-52.47 z"
       id="path288"
       inkscape:connector-curvature="0"
       style="fill:#0a6ec1;stroke:#0a6ec1" />
    <path
       d="m 1076.75,566.19 -106.45,52.47 74.28,61.15 z"
       id="path290"
       inkscape:connector-curvature="0"
       style="fill:#0c5bad;stroke:#0c5bad" />
    <path
       d="m 1076.75,566.19 -32.17,113.62 80.86,-62 z"
       id="path292"
       inkscape:connector-curvature="0"
       style="fill:#0c53a5;stroke:#0c53a5" />
    <path
       d="m 1076.75,566.19 48.695,51.619 20.13,-73.31 z"
       id="path294"
       inkscape:connector-curvature="0"
       style="fill:#0c5bae;stroke:#0c5bae" />
    <path
       d="m 1145.57,544.5 -20.13,73.31 98.05,-88.15 z"
       id="path296"
       inkscape:connector-curvature="0"
       style="fill:#0d57a8;stroke:#0d57a8" />
    <path
       d="m 1223.49,529.66 -98.05,88.15 133.46,63.714 z"
       id="path298"
       inkscape:connector-curvature="0"
       style="fill:#0c4596;stroke:#0c4596" />
    <path
       d="m 1223.49,529.66 35.412,151.86 107.04,-123.8 z"
       id="path300"
       inkscape:connector-curvature="0"
       style="fill:#0e3f8e;stroke:#0e3f8e" />
    <path
       d="m 1365.94,557.72 -107.04,123.8 117.84,-19.08 z"
       id="path302"
       inkscape:connector-curvature="0"
       style="fill:#0e2978;stroke:#0e2978" />
    <path
       d="m -31.599,682.81 -50.33,80.65 145.43,7.255 z"
       id="path304"
       inkscape:connector-curvature="0"
       style="fill:#8583b6;stroke:#8583b6" />
    <path
       d="M -31.599,682.81 63.491,770.72 50.593,620.25"
       id="path306"
       inkscape:connector-curvature="0"
       style="fill:#8196c1;stroke:#8196c1" />
    <path
       d="M 50.595,620.25 63.493,770.72 115.236,659.87"
       id="path308"
       inkscape:connector-curvature="0"
       style="fill:#7d96c0;stroke:#7d96c0" />
    <path
       d="m 115.24,659.87 -51.743,110.85 116.2,-11.552"
       id="path310"
       inkscape:connector-curvature="0"
       style="fill:#7785b0;stroke:#7785b0" />
    <path
       d="m 115.24,659.87 64.45,99.29 70.919,-40.812 z"
       id="path312"
       inkscape:connector-curvature="0"
       style="fill:#738bb1;stroke:#738bb1" />
    <path
       d="m 115.24,659.87 135.37,58.48 3.208,-58.723 z"
       id="path314"
       inkscape:connector-curvature="0"
       style="fill:#7198b9;stroke:#7198b9" />
    <path
       d="m 253.82,659.63 -3.208,58.723 93.45,-74.15 z"
       id="path316"
       inkscape:connector-curvature="0"
       style="fill:#6b99b4;stroke:#6b99b4" />
    <path
       d="m 344.06,644.2 -93.45,74.15 101.73,25.798 z"
       id="path318"
       inkscape:connector-curvature="0"
       style="fill:#678daa;stroke:#678daa" />
    <path
       d="m 344.06,644.2 8.278,99.95 85.3,-73.997 z"
       id="path320"
       inkscape:connector-curvature="0"
       style="fill:#5d93ad;stroke:#5d93ad" />
    <path
       d="m 437.64,670.15 -85.3,73.997 130.76,27.527 z"
       id="path322"
       inkscape:connector-curvature="0"
       style="fill:#56829f;stroke:#56829f" />
    <path
       d="m 437.64,670.15 45.46,101.52 78.44,-46.969 z"
       id="path324"
       inkscape:connector-curvature="0"
       style="fill:#4b7da4;stroke:#4b7da4" />
    <path
       d="m 437.64,670.15 123.9,54.55 -4.389,-98.05"
       id="path326"
       inkscape:connector-curvature="0"
       style="fill:#478cb5;stroke:#478cb5" />
    <path
       d="m 557.15,626.66 4.389,98.05 71.06,-93.81 z"
       id="path328"
       inkscape:connector-curvature="0"
       style="fill:#3d8bbc;stroke:#3d8bbc" />
    <path
       d="m 632.6,630.89 -71.06,93.81 93.98,13.87 z"
       id="path330"
       inkscape:connector-curvature="0"
       style="fill:#397bb1;stroke:#397bb1" />
    <path
       d="m 632.6,630.89 22.924,107.68 84.78,6.593 z"
       id="path332"
       inkscape:connector-curvature="0"
       style="fill:#3074b1;stroke:#3074b1" />
    <path
       d="M 632.6,630.89 740.3,745.16 782.829,618.55 Z"
       id="path334"
       inkscape:connector-curvature="0"
       style="fill:#2a7abd;stroke:#2a7abd" />
    <path
       d="m 782.83,618.56 -42.529,126.61 88.81,-6.716 z"
       id="path336"
       inkscape:connector-curvature="0"
       style="fill:#2164ad;stroke:#2164ad" />
    <path
       d="m 782.83,618.56 46.29,119.89 46.706,-78.76 z"
       id="path338"
       inkscape:connector-curvature="0"
       style="fill:#1c69b2;stroke:#1c69b2" />
    <path
       d="m 875.82,659.69 -46.706,78.76 149.77,11.534 z"
       id="path340"
       inkscape:connector-curvature="0"
       style="fill:#15529e;stroke:#15529e" />
    <path
       d="m 875.82,659.69 103.07,90.29 -8.598,-131.32 z"
       id="path342"
       inkscape:connector-curvature="0"
       style="fill:#0f57a8;stroke:#0f57a8" />
    <path
       d="m 970.29,618.67 8.598,131.32 65.69,-70.17 z"
       id="path344"
       inkscape:connector-curvature="0"
       style="fill:#0c4da0;stroke:#0c4da0" />
    <path
       d="m 1044.58,679.81 -65.69,70.17 95.67,6.171 z"
       id="path346"
       inkscape:connector-curvature="0"
       style="fill:#0e398a;stroke:#0e398a" />
    <path
       d="m 1044.58,679.81 29.989,76.34 50.876,-138.35 z"
       id="path348"
       inkscape:connector-curvature="0"
       style="fill:#0e4190;stroke:#0e4190" />
    <path
       d="m 1125.44,617.81 -50.876,138.35 101.89,18.479 z"
       id="path350"
       inkscape:connector-curvature="0"
       style="fill:#0e2f7f;stroke:#0e2f7f" />
    <path
       d="m 1125.44,617.81 51.01,156.82 82.44,-93.11 z"
       id="path352"
       inkscape:connector-curvature="0"
       style="fill:#0e2e7e;stroke:#0e2e7e" />
    <path
       d="m 1258.9,681.52 -82.44,93.11 76.21,-42.869 z"
       id="path354"
       inkscape:connector-curvature="0"
       style="fill:#0e1a6b;stroke:#0e1a6b" />
    <path
       d="m 1258.9,681.52 -6.233,50.24 121.7,20.953 z"
       id="path356"
       inkscape:connector-curvature="0"
       style="fill:#101361;stroke:#101361" />
    <path
       d="m 1258.9,681.52 115.46,71.19 2.379,-90.28 z"
       id="path358"
       inkscape:connector-curvature="0"
       style="fill:#101562;stroke:#101562" />
    <path
       d="m 179.69,759.16 63.29,108.27 7.625,-149.08 z"
       id="path360"
       inkscape:connector-curvature="0"
       style="fill:#726b9a;stroke:#726b9a" />
    <path
       d="m 250.61,718.35 -7.625,149.08 109.36,-123.28 z"
       id="path362"
       inkscape:connector-curvature="0"
       style="fill:#696d97;stroke:#696d97" />
    <path
       d="m 483.1,771.67 47.21,80.945 31.24,-127.91 z"
       id="path364"
       inkscape:connector-curvature="0"
       style="fill:#486891;stroke:#486891" />
    <path
       d="m 561.54,724.71 -31.24,127.91 101.29,9.868 z"
       id="path366"
       inkscape:connector-curvature="0"
       style="fill:#40628a;stroke:#40628a" />
    <path
       d="m 561.54,724.71 70.05,137.78 23.931,-123.91"
       id="path368"
       inkscape:connector-curvature="0"
       style="fill:#396399;stroke:#396399" />
    <path
       d="m 655.52,738.58 -23.931,123.91 104.11,-22.774"
       id="path370"
       inkscape:connector-curvature="0"
       style="fill:#32598e;stroke:#32598e" />
    <path
       d="m 655.52,738.58 80.18,101.14 4.601,-94.55 z"
       id="path372"
       inkscape:connector-curvature="0"
       style="fill:#2c599a;stroke:#2c599a" />
    <path
       d="m 740.3,745.17 -4.601,94.55 93.41,-101.26 z"
       id="path374"
       inkscape:connector-curvature="0"
       style="fill:#255095;stroke:#255095" />
    <path
       d="m 829.12,738.45 -93.41,101.26 114.91,20.319"
       id="path376"
       inkscape:connector-curvature="0"
       style="fill:#214687;stroke:#214687" />
    <path
       d="m 829.12,738.45 21.495,121.58 128.28,-110.05"
       id="path378"
       inkscape:connector-curvature="0"
       style="fill:#163d8a;stroke:#163d8a" />
    <path
       d="m 1176.46,774.64 65.63,46.17 10.585,-89.04 z"
       id="path380"
       inkscape:connector-curvature="0"
       style="fill:#100e5c;stroke:#100e5c" />
    <path
       d="m 1252.67,731.77 -10.585,89.04 132.28,-68.08 z"
       id="path382"
       inkscape:connector-curvature="0"
       style="fill:#120654;stroke:#120654" />
  </g>
  <g
     id="g5000">
    <g
       inkscape:export-ydpi="85.349998"
       inkscape:export-xdpi="85.349998"
       style="opacity:0.2;fill:#000000;stroke-width:1.5866394"
       id="g4184"
       transform="matrix(2.040266,0,0,2.0749988,-726.43289,-752.39503)">
      <g
         style="fill:#000000;stroke-width:1.5866394"
         transform="translate(-75.203051,-110.58884)"
         id="g4186">
        <path
           style="opacity:1;fill:#000000;fill-opacity:1;stroke:none;stroke-width:3.96659827;stroke-miterlimit:4;stroke-dasharray:3.96659838, 3.96659838000000020;stroke-dashoffset:0;stroke-opacity:1"
           d="m 465,499.3622 v 18 h 72.27148 L 555,499.63368 v -0.27148 z"
           id="path4188"
           inkscape:connector-curvature="0" />
        <path
           inkscape:connector-curvature="0"
           id="path4190"
           d="m 465,499.3622 h 18 v 72.27148 L 465.27148,589.3622 H 465 Z"
           style="opacity:1;fill:#000000;fill-opacity:1;stroke:none;stroke-width:3.96659827;stroke-miterlimit:4;stroke-dasharray:3.96659838, 3.96659838000000020;stroke-dashoffset:0;stroke-opacity:1" />
      </g>
      <g
         style="fill:#000000;stroke-width:1.5866394"
         id="g4192"
         transform="rotate(180,477.39848,494.06777)">
        <path
           inkscape:connector-curvature="0"
           id="path4194"
           d="m 465,499.3622 v 18 h 72.27148 L 555,499.63368 v -0.27148 z"
           style="opacity:1;fill:#000000;fill-opacity:1;stroke:none;stroke-width:3.96659827;stroke-miterlimit:4;stroke-dasharray:3.96659838, 3.96659838000000020;stroke-dashoffset:0;stroke-opacity:1" />
        <path
           style="opacity:1;fill:#000000;fill-opacity:1;stroke:none;stroke-width:3.96659827;stroke-miterlimit:4;stroke-dasharray:3.96659838, 3.96659838000000020;stroke-dashoffset:0;stroke-opacity:1"
           d="m 465,499.3622 h 18 v 72.27148 L 465.27148,589.3622 H 465 Z"
           id="path4196"
           inkscape:connector-curvature="0" />
      </g>
    </g>
    <g
       inkscape:export-ydpi="85.349998"
       inkscape:export-xdpi="85.349998"
       style="fill:#ffffff;stroke-width:1.5866394"
       transform="matrix(2.040266,0,0,2.0749988,-736.99651,-763.13856)"
       id="g4176">
      <g
         style="fill:#ffffff;stroke-width:1.5866394"
         id="g4166"
         transform="translate(-75.203051,-110.58884)">
        <path
           inkscape:connector-curvature="0"
           id="rect4159"
           d="m 465,499.3622 v 18 h 72.27148 L 555,499.63368 v -0.27148 z"
           style="opacity:1;fill:#ffffff;fill-opacity:1;stroke:none;stroke-width:3.96659827;stroke-miterlimit:4;stroke-dasharray:3.96659838, 3.96659838;stroke-dashoffset:0;stroke-opacity:1" />
        <path
           style="opacity:1;fill:#ffffff;fill-opacity:1;stroke:none;stroke-width:3.96659827;stroke-miterlimit:4;stroke-dasharray:3.96659838, 3.96659838;stroke-dashoffset:0;stroke-opacity:1"
           d="m 465,499.3622 h 18 v 72.27148 L 465.27148,589.3622 H 465 Z"
           id="path4164"
           inkscape:connector-curvature="0" />
      </g>
      <g
         style="fill:#ffffff;stroke-width:1.5866394"
         transform="rotate(180,477.39848,494.06777)"
         id="g4170">
        <path
           style="opacity:1;fill:#ffffff;fill-opacity:1;stroke:none;stroke-width:3.96659827;stroke-miterlimit:4;stroke-dasharray:3.96659838, 3.96659838;stroke-dashoffset:0;stroke-opacity:1"
           d="m 465,499.3622 v 18 h 72.27148 L 555,499.63368 v -0.27148 z"
           id="path4172"
           inkscape:connector-curvature="0" />
        <path
           inkscape:connector-curvature="0"
           id="path4174"
           d="m 465,499.3622 h 18 v 72.27148 L 465.27148,589.3622 H 465 Z"
           style="opacity:1;fill:#ffffff;fill-opacity:1;stroke:none;stroke-width:3.96659827;stroke-miterlimit:4;stroke-dasharray:3.96659838, 3.96659838;stroke-dashoffset:0;stroke-opacity:1" />
      </g>
    </g>
  </g>
  <g
     id="g4984"
     transform="translate(0,59.335268)">
    <text
       id="text4911-9"
       y="123.16978"
       x="316.27594"
       style="font-style:normal;font-weight:normal;font-size:42.66666794px;line-height:1;font-family:sans-serif;letter-spacing:0px;word-spacing:0px;opacity:0.2;fill:#000000;fill-opacity:1;stroke:none"
       xml:space="preserve"><tspan
         style="font-style:normal;font-variant:normal;font-weight:bold;font-stretch:normal;font-size:96px;line-height:0;font-family:sans-serif;-inkscape-font-specification:'sans-serif Bold';fill:#000000"
         y="123.16978"
         x="316.27594"
         id="tspan4909-8"
         sodipodi:role="line">Labsquare</tspan></text>
    <text
       id="text4911"
       y="116.5032"
       x="308.27594"
       style="font-style:normal;font-weight:bold;font-size:42.66666794px;line-height:1;font-family:sans-serif;letter-spacing:0px;word-spacing:0px;fill:#000000;fill-opacity:1;stroke:none;-inkscape-font-specification:'sans-serif Bold';font-stretch:normal;font-variant:normal;"
       xml:space="preserve"><tspan
         style="font-style:normal;font-variant:normal;font-weight:bold;font-stretch:normal;font-size:96px;line-height:0;font-family:sans-serif;-inkscape-font-specification:'sans-serif Bold';fill:#ffffff;"
         y="116.5032"
         x="308.27594"
         id="tspan4909"
         sodipodi:role="line">Labsquare</tspan></text>
  </g>
</svg>
